<?xml version="1.0" standalone="no"?>
<!DOCTYPE svg PUBLIC "-//W3C//DTD SVG 20010904//EN"
 "http://www.w3.org/TR/2001/REC-SVG-20010904/DTD/svg10.dtd">
<svg version="1.0" xmlns="http://www.w3.org/2000/svg"
 width="512.000000pt" height="512.000000pt" viewBox="0 0 512.000000 512.000000"
 preserveAspectRatio="xMidYMid meet">
<metadata>
Created by potrace 1.14, written by Peter Selinger 2001-2017
</metadata>
<g transform="translate(0.000000,512.000000) scale(0.100000,-0.100000)"
fill="#000000" stroke="none">
<path d="M1730 4549 c-184 -65 -316 -226 -379 -461 -27 -98 -31 -126 -36 -247
-23 -474 290 -871 626 -795 187 43 329 188 413 422 111 310 50 714 -142 931
-129 147 -321 207 -482 150z"/>
<path d="M3189 4566 c-2 -2 -18 -6 -36 -9 -88 -14 -231 -122 -300 -227 -59
-89 -106 -214 -129 -345 -10 -54 -11 -288 -2 -351 24 -161 106 -335 210 -445
111 -117 274 -174 416 -145 41 9 132 55 175 88 73 57 128 124 176 218 72 138
102 257 106 420 11 456 -225 799 -551 800 -33 0 -63 -2 -65 -4z"/>
<path d="M540 3516 c-19 -7 -48 -18 -63 -25 -42 -17 -131 -111 -161 -169 -81
-159 -94 -393 -35 -611 96 -357 331 -576 568 -531 223 42 356 279 337 600 -5
101 -11 145 -22 182 -3 9 -7 25 -9 36 -22 116 -120 293 -217 393 -111 115
-282 169 -398 125z"/>
<path d="M4359 3510 c-70 -28 -107 -54 -171 -116 -120 -118 -209 -295 -243
-484 -14 -79 -13 -295 1 -364 41 -187 167 -333 314 -362 230 -45 458 141 563
461 40 119 49 177 52 315 2 95 -2 144 -16 202 -38 158 -127 286 -234 338 -67
33 -198 38 -266 10z"/>
<path d="M2488 2695 c-2 -1 -28 -5 -58 -8 -136 -15 -291 -76 -416 -165 -56
-40 -96 -76 -339 -307 -88 -84 -172 -163 -186 -176 -69 -63 -328 -310 -377
-359 -122 -123 -180 -254 -187 -425 -12 -272 133 -523 373 -645 178 -90 374
-86 735 14 254 70 353 88 506 90 115 1 182 -3 281 -20 19 -3 49 -8 65 -11 17
-2 120 -27 230 -54 184 -46 236 -58 335 -76 19 -3 69 -6 110 -6 359 4 646 323
634 705 -5 172 -73 323 -199 442 -16 15 -95 90 -175 166 -80 76 -163 155 -186
176 -84 80 -308 292 -382 362 -125 120 -230 189 -362 239 -62 24 -74 27 -130
38 -14 3 -36 7 -50 10 -28 6 -217 15 -222 10z"/>
</g>
</svg>
